# xmcd
#
# Track frame offsets: 
#        150
#        18123
#        34515
#        50328
#        66513
#        86566
#        105165
#        125590
#        140400
#        151788
#        172089
#        191408
#        210229
#        227615
#
# Disc length: 3214 seconds
#
# Revision: 0
# Processed by: cddbd v1.5.2PL0 Copyright (c) Steve Scherf et al.
# Submitted via: ExactAudioCopy v0.99pb3
#
DISCID=aa0c8c0e
DTITLE=Paul Orta and The Kingpins - Hurricane Rita Blues
DYEAR=2012
DGENRE=Blues
TTITLE0=Hurricane Rita Blues
TTITLE1=Messin' With The Man
TTITLE2=Let's Work Together
TTITLE3=Checkin' Up On My Baby
TTITLE4=Keep On Shaking It
TTITLE5=The Sky Is Crying
TTITLE6=She's My Fine Sweet Thing
TTITLE7=Talk To Your Daughter
TTITLE8=Tomorrow Night
TTITLE9=Good Bye Baby
TTITLE10=Hey, Mr. Devil
TTITLE11=Everytime
TTITLE12=Hookin' In The Bayou
TTITLE13=Arabian Love Call
EXTD=
EXTT0=
EXTT1=
EXTT2=
EXTT3=
EXTT4=
EXTT5=
EXTT6=
EXTT7=
EXTT8=
EXTT9=
EXTT10=
EXTT11=
EXTT12=
EXTT13=
PLAYORDER=
